<svg width="24" height="24" viewBox="0 0 24 24" fill="none" xmlns="http://www.w3.org/2000/svg">
<path d="M0.75 15.5C0.948912 15.5 1.13968 15.579 1.28033 15.7197C1.42098 15.8603 1.5 16.0511 1.5 16.25V20C1.5 20.3978 1.65804 20.7794 1.93934 21.0607C2.22064 21.342 2.60218 21.5 3 21.5H21C21.3978 21.5 21.7794 21.342 22.0607 21.0607C22.342 20.7794 22.5 20.3978 22.5 20V16.25C22.5 16.0511 22.579 15.8603 22.7197 15.7197C22.8603 15.579 23.0511 15.5 23.25 15.5C23.4489 15.5 23.6397 15.579 23.7803 15.7197C23.921 15.8603 24 16.0511 24 16.25V20C24 20.7956 23.6839 21.5587 23.1213 22.1213C22.5587 22.6839 21.7957 23 21 23H3C2.20435 23 1.44129 22.6839 0.87868 22.1213C0.316071 21.5587 0 20.7956 0 20V16.25C0 16.0511 0.0790176 15.8603 0.21967 15.7197C0.360322 15.579 0.551088 15.5 0.75 15.5Z" fill="white"/>
<path d="M11.469 17.781C11.5386 17.8508 11.6214 17.9063 11.7125 17.9441C11.8036 17.9819 11.9013 18.0013 12 18.0013C12.0986 18.0013 12.1963 17.9819 12.2874 17.9441C12.3785 17.9063 12.4613 17.8508 12.531 17.781L17.031 13.281C17.1718 13.1402 17.2509 12.9492 17.2509 12.75C17.2509 12.5508 17.1718 12.3598 17.031 12.219C16.8901 12.0782 16.6991 11.9991 16.5 11.9991C16.3008 11.9991 16.1098 12.0782 15.969 12.219L12.75 15.4395V2.25C12.75 2.05109 12.671 1.86032 12.5303 1.71967C12.3896 1.57902 12.1989 1.5 12 1.5C11.8011 1.5 11.6103 1.57902 11.4696 1.71967C11.329 1.86032 11.25 2.05109 11.25 2.25V15.4395L8.03097 12.219C7.89014 12.0782 7.69913 11.9991 7.49997 11.9991C7.30081 11.9991 7.1098 12.0782 6.96897 12.219C6.82814 12.3598 6.74902 12.5508 6.74902 12.75C6.74902 12.9492 6.82814 13.1402 6.96897 13.281L11.469 17.781Z" fill="white"/>
</svg>
