<svg width="16" height="16" viewBox="0 0 16 16" fill="none" xmlns="http://www.w3.org/2000/svg">
<path d="M14 14V4.5L9.5 0H4C3.46957 0 2.96086 0.210714 2.58579 0.585786C2.21071 0.960859 2 1.46957 2 2V14C2 14.5304 2.21071 15.0391 2.58579 15.4142C2.96086 15.7893 3.46957 16 4 16H12C12.5304 16 13.0391 15.7893 13.4142 15.4142C13.7893 15.0391 14 14.5304 14 14ZM9.5 3C9.5 3.39782 9.65804 3.77936 9.93934 4.06066C10.2206 4.34196 10.6022 4.5 11 4.5H13V14C13 14.2652 12.8946 14.5196 12.7071 14.7071C12.5196 14.8946 12.2652 15 12 15H4C3.73478 15 3.48043 14.8946 3.29289 14.7071C3.10536 14.5196 3 14.2652 3 14V2C3 1.73478 3.10536 1.48043 3.29289 1.29289C3.48043 1.10536 3.73478 1 4 1H9.5V3Z" fill="#E2CAA2"/>
<path d="M5.46885 10.8827C5.46885 11.2608 5.35166 11.3733 5.12666 11.3733C4.98604 11.3733 4.83916 11.2827 4.73916 11.0843L4.26416 11.4374C4.47354 11.7952 4.76885 11.9718 5.22197 11.9718C5.87197 11.9718 6.17197 11.5046 6.17197 10.9374V9.01553H5.46885V10.8827ZM7.83291 9.01553H6.82822V11.9218H7.51572V10.953H7.85322C8.46416 10.953 8.99541 10.6468 8.99541 9.95928C8.99541 9.24365 8.47197 9.01553 7.83291 9.01553ZM7.82041 10.4062H7.51572V9.57803H7.8001C8.13604 9.57803 8.32197 9.6749 8.32197 9.96709C8.32197 10.2499 8.15791 10.4062 7.82041 10.4062ZM10.672 10.2655V10.828H11.1407V11.2983C11.0782 11.3437 10.9688 11.3718 10.8642 11.3718C10.3282 11.3718 10.072 11.0374 10.072 10.4624C10.072 9.89834 10.3798 9.56553 10.8079 9.56553C11.047 9.56553 11.1985 9.6624 11.3392 9.79053L11.7095 9.34834C11.511 9.14834 11.2079 8.97021 10.7845 8.97021C10.0095 8.97021 9.36103 9.52178 9.36103 10.4858C9.36103 11.4655 9.98603 11.9718 10.7907 11.9718C11.1954 11.9718 11.5595 11.8124 11.7517 11.6187V10.2655H10.672Z" fill="#E2CAA2"/>
</svg>
