<svg width="40" height="40" viewBox="0 0 40 40" fill="none" xmlns="http://www.w3.org/2000/svg">
<path d="M3.5 24.765L3.5 15.2333C3.5 14.2767 4.24667 13.5 5.16667 13.5H10.9771C11.1977 13.4992 11.4158 13.4538 11.6183 13.3664C11.8208 13.279 12.0036 13.1516 12.1555 12.9917L17.655 7.17833C18.705 6.085 20.5 6.86 20.5 8.405V31.595C20.5 33.1517 18.6833 33.92 17.64 32.805L12.1571 27.0233C12.0048 26.8589 11.8202 26.7275 11.6149 26.6375C11.4096 26.5475 11.188 26.5007 10.9638 26.5H5.16667C4.24667 26.5 3.5 25.7233 3.5 24.765Z" stroke="white" stroke-linecap="round" stroke-linejoin="round"/>
<path d="M25.625 14.375L36.875 25.625" stroke="white" stroke-linecap="round"/>
<path d="M36.875 14.375L25.625 25.625" stroke="white" stroke-linecap="round"/>
</svg>
