<svg width="40" height="40" viewBox="0 0 40 40" fill="none" xmlns="http://www.w3.org/2000/svg">
<path d="M3.5 24.8067L3.5 15.2333C3.5 14.2767 4.24667 13.5 5.16667 13.5H10.9771C11.1977 13.4992 11.4158 13.4538 11.6183 13.3664C11.8208 13.279 12.0036 13.1516 12.1555 12.9917L17.655 7.17831C18.705 6.08498 20.5 6.85998 20.5 8.40498V31.595C20.5 33.1516 18.6833 33.92 17.64 32.805L12.1571 27.065C12.0048 26.9005 11.8202 26.7692 11.6149 26.6792C11.4096 26.5891 11.188 26.5423 10.9638 26.5417H5.16667C4.24667 26.5417 3.5 25.765 3.5 24.8067Z" stroke="white" stroke-linecap="round" stroke-linejoin="round"/>
<path d="M26.6675 14.1667C28.8891 17.13 28.8891 22.87 26.6675 25.8334" stroke="white" stroke-linecap="round" stroke-linejoin="round"/>
<path d="M31.875 8.33331C38.5217 14.68 38.5617 25.3616 31.875 31.6666" stroke="white" stroke-linecap="round" stroke-linejoin="round"/>
</svg>
