<svg width="120" height="27" viewBox="0 0 120 27" fill="none" xmlns="http://www.w3.org/2000/svg">
<g clip-path="url(#clip0_500_1638)">
<path d="M12.9558 1.25149C6.06425 1.25149 1.25149 6.06425 1.25149 12.96C1.25149 20.0154 6.06425 24.9416 12.9558 24.9416C19.8264 24.9416 24.6266 20.0154 24.6266 12.96C24.6224 6.06425 19.8264 1.25149 12.9558 1.25149ZM12.9558 26.1888C5.32512 26.1888 0 20.7503 0 12.9558C0 5.32932 5.32512 0 12.9558 0C20.5614 0 25.8739 5.32932 25.8739 12.9558C25.8739 20.7503 20.5614 26.1888 12.9558 26.1888Z" fill="white"/>
<path d="M12.9557 4.80016C8.48732 4.80016 5.48879 8.08007 5.48879 12.96C5.48879 17.9828 8.49152 21.3593 12.9557 21.3593C17.4241 21.3593 20.4226 17.9828 20.4226 12.96C20.4226 8.07587 17.4199 4.80016 12.9557 4.80016ZM12.9557 22.6066C7.82378 22.6066 4.2373 18.6379 4.2373 12.9558C4.2373 7.41653 7.82378 3.54868 12.9557 3.54868C18.0877 3.54868 21.6741 7.41653 21.6741 12.9558C21.6699 18.6379 18.0877 22.6066 12.9557 22.6066Z" fill="white"/>
<path d="M25.8949 25.7773C25.7731 25.7773 25.6471 25.7395 25.5379 25.6681C25.2523 25.4707 25.1851 25.0801 25.3783 24.7988L33.6432 12.8508L25.7563 1.39428C25.5589 1.1087 25.6345 0.722338 25.9158 0.524955C26.2014 0.327573 26.5878 0.403166 26.7852 0.684541L35.1592 12.855L26.4072 25.5085C26.2854 25.6807 26.0922 25.7773 25.8949 25.7773Z" fill="white"/>
<path d="M30.8883 25.7773C30.7665 25.7773 30.6489 25.7437 30.5397 25.6723C30.2542 25.4791 30.1786 25.0927 30.3675 24.803L36.982 14.9381L43.63 24.803C43.8231 25.0885 43.7475 25.4791 43.462 25.6723C43.1764 25.8655 42.7858 25.7899 42.5926 25.5043L36.9862 17.1765L31.4091 25.5001C31.2873 25.6807 31.0899 25.7773 30.8883 25.7773Z" fill="white"/>
<path d="M48.1403 25.7773C47.943 25.7773 47.7456 25.6849 47.6238 25.5085L38.876 12.855L47.2836 0.684535C47.481 0.39896 47.8674 0.327567 48.1529 0.524949C48.4385 0.722331 48.5057 1.1087 48.3125 1.39427L40.3962 12.855L48.6569 24.7988C48.8543 25.0843 48.7829 25.4707 48.4973 25.6681C48.3881 25.7395 48.2663 25.7773 48.1403 25.7773Z" fill="white"/>
<path d="M37.0869 10.7342L30.7833 1.39007C30.5901 1.1045 30.6657 0.713936 30.9513 0.520753C31.2369 0.32757 31.6274 0.403164 31.8206 0.688738L37.0869 8.49584L42.3197 0.688738C42.5129 0.403164 42.8992 0.323371 43.1848 0.516553C43.4704 0.709736 43.546 1.0961 43.357 1.38168L37.0869 10.7342Z" fill="white"/>
<path d="M85.7603 22.6066C80.2966 22.6066 76.9033 18.8815 76.9033 12.8886C76.9033 7.40813 80.5444 3.58228 85.7603 3.58228C88.0827 3.58228 90.2581 4.29201 92.4125 5.75768C92.6981 5.95086 92.7737 6.34143 92.5805 6.627C92.3873 6.91258 91.9968 6.98817 91.7112 6.79499C89.7416 5.45951 87.8517 4.83796 85.7603 4.83796C81.2121 4.83796 78.1548 8.07587 78.1548 12.8928C78.1548 18.197 80.998 21.3635 85.7603 21.3635C87.2764 21.3635 88.8134 21.0233 89.9557 20.448V15.7192H84.5214C84.1771 15.7192 83.8957 15.4378 83.8957 15.0934C83.8957 14.7491 84.1771 14.4677 84.5214 14.4677H91.2072V21.1703L90.8965 21.3509C89.5484 22.1362 87.6292 22.6066 85.7603 22.6066Z" fill="white"/>
<path d="M85.6555 26.1888C77.8862 26.1888 72.666 20.8427 72.666 12.8886C72.6702 5.29992 78.0079 0 85.6555 0C88.8808 0 91.7911 0.928116 94.5503 2.83055C94.8358 3.02793 94.9072 3.41429 94.7098 3.69987C94.5125 3.98544 94.1261 4.05684 93.8405 3.85945C91.2955 2.10401 88.6162 1.24729 85.6555 1.24729C78.6337 1.24729 73.9175 5.92567 73.9175 12.8844C73.9175 20.2044 78.5245 24.9374 85.6555 24.9374C88.6582 24.9374 91.5307 24.1142 93.7775 22.615V12.4141H84.5174C84.173 12.4141 83.8916 12.1327 83.8916 11.7883C83.8916 11.444 84.173 11.1626 84.5174 11.1626H95.0248V23.2659L94.7602 23.4507C92.2699 25.2187 89.0362 26.1888 85.6555 26.1888Z" fill="white"/>
<path d="M106.116 25.7773C105.772 25.7773 105.49 25.4959 105.49 25.1515V15.5848L96.4947 1.37328C96.31 1.0835 96.3981 0.69714 96.6879 0.512356C96.9777 0.327573 97.3641 0.415765 97.5488 0.705539L106.738 15.2236V25.1515C106.742 25.4959 106.46 25.7773 106.116 25.7773Z" fill="white"/>
<path d="M110.282 25.7773C109.938 25.7773 109.656 25.4959 109.656 25.1515V15.2236L118.845 0.705539C119.03 0.411565 119.416 0.327573 119.706 0.512356C119.996 0.697139 120.084 1.0835 119.899 1.37328L110.904 15.5848V25.1515C110.908 25.4959 110.626 25.7773 110.282 25.7773Z" fill="white"/>
<path d="M108.602 12.0319H107.829L101.345 1.36488C101.165 1.0709 101.261 0.684539 101.555 0.503955C101.849 0.323371 102.235 0.419963 102.412 0.713936L108.216 10.2639L114.053 0.713936C114.234 0.419963 114.62 0.327571 114.914 0.508155C115.208 0.688739 115.3 1.0751 115.12 1.36908L108.602 12.0319Z" fill="white"/>
<path d="M59.454 25.7773C59.1096 25.7773 58.8282 25.4959 58.8282 25.1515V15.5848L49.8326 1.37328C49.6478 1.0835 49.736 0.69714 50.0258 0.512356C50.3156 0.327573 50.7019 0.415765 50.8867 0.705539L60.0755 15.2236V25.1515C60.0797 25.4959 59.7983 25.7773 59.454 25.7773Z" fill="white"/>
<path d="M63.6199 25.7773C63.2755 25.7773 62.9941 25.4959 62.9941 25.1515V15.2236L72.1829 0.705539C72.3677 0.411565 72.7541 0.327573 73.0438 0.512356C73.3336 0.697139 73.4218 1.0835 73.237 1.37328L64.2414 15.5848V25.1515C64.2456 25.4959 63.9643 25.7773 63.6199 25.7773Z" fill="white"/>
<path d="M61.9404 12.0319H61.1677L54.6835 1.36488C54.5029 1.0709 54.5995 0.684539 54.8935 0.503955C55.1875 0.323371 55.5738 0.419963 55.7502 0.713936L61.5541 10.2639L67.3916 0.713936C67.5721 0.419963 67.9585 0.327571 68.2525 0.508155C68.5465 0.688739 68.6388 1.0751 68.4583 1.36908L61.9404 12.0319Z" fill="white"/>
</g>
<defs>
<clipPath id="clip0_500_1638">
<rect width="120" height="26.1888" fill="white"/>
</clipPath>
</defs>
</svg>
