<svg width="164" height="164" viewBox="0 0 164 164" fill="none" xmlns="http://www.w3.org/2000/svg">
<path d="M79.3845 6.148L81.6405 6.148V13L83.3565 13V6.148L85.6245 6.148V4.6L79.3845 4.6V6.148Z" fill="white"/>
<path d="M90.3043 9.71327L96.3964 10.6782L96.6386 9.14922L90.5465 8.18433L90.3043 9.71327ZM96.0537 5.86125L94.7397 14.1578L96.4345 14.4263L97.7486 6.12969L96.0537 5.86125ZM90.4832 4.97896L89.1691 13.2755L90.864 13.544L92.178 5.2474L90.4832 4.97896Z" fill="white"/>
<path d="M101.896 15.9137L105.925 17.2227L106.373 15.8418L102.345 14.5328L101.896 15.9137ZM104.043 9.3058L108.072 10.6148L108.52 9.23386L104.492 7.92486L104.043 9.3058ZM103.053 12.353L106.853 13.5878L107.295 12.2297L103.494 10.9949L103.053 12.353ZM103.442 7.58371L100.846 15.5726L102.421 16.0843L105.017 8.09544L103.442 7.58371Z" fill="white"/>
<path d="M125.327 17.807L120.389 24.6028L121.778 25.6114L126.715 18.8157L125.327 17.807ZM125.318 19.5954L126.667 20.5758C127.036 20.8438 127.266 21.1396 127.358 21.463C127.454 21.78 127.382 22.1035 127.142 22.4336C126.907 22.7572 126.621 22.9256 126.285 22.9387C125.95 22.9518 125.597 22.8243 125.228 22.5563L123.879 21.5759L123.025 22.7506L124.375 23.731C124.912 24.1213 125.432 24.3654 125.934 24.4634C126.443 24.5661 126.915 24.5285 127.351 24.3507C127.791 24.1664 128.172 23.8541 128.491 23.414C128.816 22.9675 128.995 22.5095 129.03 22.0401C129.064 21.5707 128.954 21.11 128.699 20.6578C128.451 20.2103 128.058 19.7914 127.521 19.4011L126.171 18.4207L125.318 19.5954Z" fill="white"/>
<path d="M135.59 26.1305L129.651 32.0702L133.232 35.651L134.292 34.5904L131.925 32.223L136.804 27.3439L135.59 26.1305Z" fill="white"/>
<path d="M136.941 40.2295L139.431 43.6565L140.605 42.803L138.115 39.376L136.941 40.2295ZM142.562 36.1456L145.052 39.5725L146.226 38.7191L143.736 35.2921L142.562 36.1456ZM139.97 38.0288L142.318 41.2616L143.474 40.4223L141.125 37.1895L139.97 38.0288ZM143.088 34.3989L136.292 39.3363L137.265 40.6761L144.061 35.7387L143.088 34.3989Z" fill="white"/>
<path d="M144.412 48.303L146.428 52.259L147.544 51.4617L145.713 47.8691L144.412 48.303ZM148.767 48.549L146.741 50.9955L146.345 51.1702L144.761 53.1894L145.643 54.9215L151.632 47.0889L141.775 47.3301L142.652 49.0516L145.292 48.9457L145.618 48.7392L148.767 48.549Z" fill="white"/>
<path d="M149.699 57.9429L148.499 57.0458C148.183 57.3419 147.916 57.6978 147.698 58.1136C147.48 58.5294 147.344 58.9774 147.289 59.4577C147.245 59.9431 147.302 60.4293 147.461 60.9162C147.579 61.2814 147.749 61.609 147.969 61.8991C148.184 62.1993 148.438 62.4491 148.73 62.6487C149.03 62.8458 149.356 62.9709 149.71 63.0242C150.064 63.0775 150.435 63.0411 150.823 62.915C151.165 62.8038 151.447 62.6491 151.669 62.4509C151.9 62.2579 152.079 62.0315 152.205 61.7719C152.341 61.5174 152.438 61.2462 152.496 60.9582C152.556 60.6779 152.59 60.3935 152.597 60.1051C152.603 59.6574 152.628 59.2794 152.67 58.971C152.721 58.6602 152.797 58.4167 152.9 58.2404C153.01 58.0616 153.164 57.9401 153.362 57.8758C153.56 57.8115 153.757 57.8358 153.953 57.9486C154.157 58.0589 154.311 58.2739 154.415 58.5934C154.494 58.8369 154.515 59.0698 154.478 59.2921C154.449 59.512 154.377 59.7202 154.265 59.9167C154.162 60.1183 154.033 60.3033 153.877 60.4716L155 61.5199C155.237 61.2915 155.444 61.0097 155.621 60.6746C155.808 60.3446 155.925 59.966 155.971 59.5388C156.028 59.1167 155.973 58.6508 155.807 58.141C155.647 57.6465 155.41 57.2272 155.096 56.8833C154.792 56.5445 154.435 56.3116 154.024 56.1845C153.622 56.0626 153.193 56.0758 152.737 56.2241C152.356 56.3477 152.053 56.5263 151.826 56.7598C151.606 56.9909 151.438 57.2477 151.319 57.5301C151.208 57.8101 151.131 58.0916 151.089 58.3746C151.056 58.6628 151.037 58.9131 151.03 59.1256C151.009 59.5277 150.977 59.8702 150.935 60.1532C150.902 60.4414 150.83 60.6711 150.717 60.8423C150.607 61.021 150.426 61.1512 150.175 61.2328C149.886 61.3267 149.624 61.2982 149.39 61.1472C149.156 60.9961 148.986 60.757 148.88 60.4298C148.788 60.1483 148.764 59.8661 148.806 59.583C148.849 59.3 148.947 59.0199 149.101 58.7428C149.258 58.4733 149.457 58.2067 149.699 57.9429Z" fill="white"/>
<path d="M158.023 67.2168L152.453 68.0991C151.963 68.1767 151.545 68.3239 151.198 68.5408C150.852 68.7576 150.575 69.0283 150.367 69.3528C150.159 69.6773 150.023 70.0432 149.958 70.4504C149.885 70.8588 149.885 71.2922 149.957 71.7505C150.029 72.2008 150.162 72.609 150.358 72.9749C150.546 73.342 150.788 73.6478 151.086 73.8922C151.385 74.1445 151.733 74.3203 152.13 74.4195C152.526 74.5187 152.969 74.5295 153.459 74.4519L159.03 73.5696L158.761 71.8748L153.297 72.7402C152.823 72.8153 152.42 72.7495 152.088 72.543C151.764 72.3431 151.564 71.9982 151.486 71.5083C151.409 71.0184 151.492 70.6245 151.736 70.3266C151.99 70.0354 152.354 69.8522 152.828 69.7771L158.292 68.9117L158.023 67.2168Z" fill="white"/>
<path d="M154.912 81.0993L151 83.6193V85.6473L154.912 82.9113V81.0993ZM159.4 79.1913H151V80.9073H159.4V79.1913ZM157.936 80.2353V81.9033C157.936 82.2073 157.884 82.4673 157.78 82.6833C157.684 82.9073 157.54 83.0793 157.348 83.1993C157.164 83.3193 156.94 83.3793 156.676 83.3793C156.412 83.3793 156.184 83.3193 155.992 83.1993C155.808 83.0793 155.664 82.9073 155.56 82.6833C155.464 82.4673 155.416 82.2073 155.416 81.9033V80.2353H154.048V82.0113C154.048 82.6753 154.16 83.2393 154.384 83.7033C154.608 84.1673 154.92 84.5233 155.32 84.7713C155.728 85.0193 156.196 85.1433 156.724 85.1433C157.26 85.1433 157.728 85.0193 158.128 84.7713C158.528 84.5233 158.84 84.1673 159.064 83.7033C159.288 83.2393 159.4 82.6753 159.4 82.0113V80.2353H157.936Z" fill="white"/>
<path d="M150.385 91.3129L149.722 95.4967L151.157 95.7239L151.819 91.54L150.385 91.3129ZM157.248 92.3998L156.585 96.5837L158.019 96.8108L158.682 92.6269L157.248 92.3998ZM154.083 91.8986L153.458 95.8454L154.868 96.0688L155.493 92.122L154.083 91.8986ZM158.854 91.5365L150.558 90.2225L150.299 91.8581L158.595 93.1722L158.854 91.5365Z" fill="white"/>
<path d="M148.411 112.898C148.888 113.142 149.262 113.458 149.531 113.846C149.8 114.234 149.952 114.658 149.988 115.116C150.024 115.574 149.924 116.035 149.688 116.498C149.448 116.969 149.132 117.324 148.74 117.565C148.349 117.805 147.918 117.927 147.45 117.93C146.981 117.934 146.508 117.814 146.03 117.571C145.553 117.327 145.179 117.012 144.91 116.623C144.638 116.242 144.483 115.822 144.448 115.364C144.412 114.906 144.512 114.445 144.748 113.981C144.984 113.518 145.298 113.166 145.69 112.926C146.082 112.686 146.514 112.56 146.986 112.549C147.458 112.539 147.933 112.655 148.411 112.898ZM149.233 111.284C148.67 110.997 148.097 110.826 147.515 110.772C146.939 110.721 146.382 110.783 145.844 110.958C145.306 111.132 144.816 111.408 144.373 111.784C143.933 112.17 143.567 112.652 143.272 113.23C142.978 113.807 142.806 114.384 142.755 114.959C142.707 115.546 142.773 116.104 142.951 116.635C143.126 117.173 143.403 117.66 143.783 118.096C144.166 118.542 144.639 118.909 145.202 119.196C145.772 119.487 146.343 119.652 146.916 119.692C147.491 119.743 148.046 119.676 148.581 119.49C149.112 119.312 149.591 119.031 150.02 118.648C150.456 118.268 150.819 117.793 151.11 117.223C151.397 116.66 151.567 116.087 151.622 115.504C151.68 114.932 151.625 114.379 151.457 113.845C151.29 113.31 151.018 112.822 150.642 112.379C150.273 111.939 149.804 111.574 149.233 111.284Z" fill="white"/>
<path d="M143.816 126.046L141.608 129.085L142.822 129.966L145.03 126.928L143.816 126.046ZM141.137 124.099L138.999 127.041L140.155 127.88L142.292 124.939L141.137 124.099ZM145.679 126.035L138.883 121.097L137.909 122.437L144.705 127.374L145.679 126.035Z" fill="white"/>
<path d="M123.869 140.489L128.93 143.575L130.531 142.412L121.858 137.722L123.639 147.42L125.25 146.249L123.869 140.489Z" fill="white"/>
<path d="M115.697 144.412L111.741 146.428L112.538 147.544L116.131 145.713L115.697 144.412ZM115.451 148.767L113.004 146.741L112.83 146.345L110.81 144.761L109.078 145.643L116.911 151.632L116.67 141.775L114.948 142.652L115.054 145.292L115.261 145.618L115.451 148.767Z" fill="white"/>
<path d="M105.388 151.065L101.782 148.123L99.8533 148.75L103.664 151.625L105.388 151.065ZM108.589 154.744L105.993 146.755L104.361 147.285L106.957 155.274L108.589 154.744ZM107.144 153.674L105.557 154.189C105.268 154.283 105.005 154.314 104.767 154.282C104.525 154.26 104.317 154.176 104.143 154.031C103.972 153.893 103.846 153.698 103.764 153.447C103.683 153.196 103.669 152.961 103.724 152.741C103.781 152.529 103.9 152.339 104.081 152.171C104.257 152.013 104.49 151.887 104.779 151.793L106.365 151.277L105.942 149.976L104.253 150.525C103.622 150.73 103.12 151.011 102.748 151.368C102.376 151.724 102.134 152.131 102.021 152.588C101.912 153.052 101.938 153.536 102.101 154.038C102.267 154.548 102.53 154.955 102.889 155.258C103.249 155.562 103.684 155.749 104.194 155.818C104.705 155.888 105.276 155.82 105.907 155.615L107.596 155.066L107.144 153.674Z" fill="white"/>
<path d="M94.9605 158.312L93.6465 150.016L91.9279 150.288L93.2419 158.584L94.9605 158.312Z" fill="white"/>
<path d="M83.4996 151H79.2636V152.452H83.4996V151ZM83.4996 157.948H79.2636V159.4H83.4996V157.948ZM83.4996 154.744H79.5036V156.172H83.4996V154.744ZM84.6036 159.4V151H82.9476V159.4H84.6036Z" fill="white"/>
<path d="M72.7172 157.327L70.489 156.974L71.5609 150.207L69.866 149.938L68.7941 156.706L66.5541 156.351L66.3119 157.88L72.4751 158.856L72.7172 157.327Z" fill="white"/>
<path d="M56.364 155.053L59.133 152.395L59.7992 156.17L61.6594 156.774L60.4331 151.19L61.5047 147.892L59.8499 147.354L58.7745 150.664L54.5037 154.449L56.364 155.053Z" fill="white"/>
<path d="M41.0931 142.76C40.7781 143.193 40.4077 143.513 39.982 143.717C39.5562 143.922 39.1143 144.007 38.656 143.97C38.1978 143.934 37.7584 143.763 37.3377 143.458C36.9105 143.147 36.6089 142.78 36.4329 142.355C36.2568 141.931 36.2037 141.487 36.2734 141.023C36.3432 140.559 36.5356 140.111 36.8507 139.677C37.1657 139.244 37.5361 138.924 37.9618 138.719C38.3811 138.51 38.8199 138.423 39.2781 138.459C39.7363 138.496 40.1757 138.667 40.5964 138.972C41.0171 139.278 41.3155 139.643 41.4915 140.068C41.6676 140.492 41.724 140.939 41.6607 141.407C41.5974 141.875 41.4082 142.326 41.0931 142.76ZM42.5591 143.825C42.9306 143.313 43.1888 142.774 43.3338 142.207C43.4741 141.647 43.5 141.087 43.4115 140.528C43.323 139.969 43.1278 139.442 42.8258 138.946C42.5127 138.451 42.094 138.013 41.5698 137.633C41.0455 137.252 40.5031 136.991 39.9425 136.851C39.3707 136.712 38.8087 136.69 38.2565 136.783C37.6978 136.871 37.1735 137.069 36.6837 137.376C36.1827 137.684 35.7465 138.094 35.375 138.605C34.9988 139.123 34.7462 139.661 34.617 140.22C34.4767 140.781 34.4564 141.339 34.5561 141.896C34.6493 142.449 34.8516 142.966 35.1629 143.45C35.4696 143.94 35.8818 144.373 36.3996 144.749C36.9109 145.12 37.4501 145.378 38.0172 145.523C38.573 145.67 39.128 145.703 39.682 145.621C40.236 145.539 40.7612 145.347 41.2575 145.045C41.749 144.749 42.1829 144.342 42.5591 143.825Z" fill="white"/>
<path d="M25.7429 135.203L29.4255 131.52L29.6716 139.726L35.9083 133.489L34.7373 132.318L31.0547 136.001L30.8086 127.795L24.5719 134.032L25.7429 135.203Z" fill="white"/>
<path d="M12.2159 115.529L16.0537 115.607L13.8557 118.748L14.7437 120.49L17.8252 115.674L20.9153 114.1L20.1253 112.55L17.0246 114.13L11.3279 113.786L12.2159 115.529Z" fill="white"/>
<path d="M13.1922 107.111C12.6824 107.277 12.1951 107.317 11.7303 107.233C11.2654 107.148 10.8583 106.957 10.5089 106.658C10.1595 106.36 9.90447 105.963 9.74378 105.468C9.58062 104.966 9.5526 104.492 9.65972 104.045C9.76684 103.598 9.98484 103.207 10.3137 102.873C10.6426 102.539 11.062 102.289 11.5717 102.124C12.0815 101.958 12.5688 101.918 13.0337 102.002C13.496 102.079 13.9019 102.267 14.2513 102.565C14.6007 102.864 14.8558 103.261 15.0164 103.755C15.1771 104.25 15.2039 104.721 15.0968 105.167C14.9897 105.614 14.7729 106.009 14.4465 106.35C14.1201 106.692 13.702 106.946 13.1922 107.111ZM13.7521 108.834C14.3532 108.639 14.8791 108.355 15.3297 107.981C15.7727 107.61 16.1226 107.173 16.3794 106.669C16.6363 106.165 16.7884 105.623 16.8358 105.044C16.8731 104.46 16.7916 103.86 16.5914 103.243C16.3911 102.627 16.1055 102.098 15.7344 101.655C15.3533 101.206 14.9119 100.858 14.4104 100.608C13.9064 100.352 13.3661 100.203 12.7896 100.164C12.203 100.119 11.6091 100.194 11.0081 100.389C10.3994 100.587 9.87859 100.874 9.44565 101.25C9.00264 101.621 8.65776 102.061 8.41102 102.57C8.16182 103.072 8.02112 103.61 7.98893 104.184C7.94914 104.76 8.02813 105.353 8.2259 105.962C8.4212 106.563 8.70561 107.089 9.07914 107.539C9.4426 107.985 9.87253 108.337 10.369 108.596C10.8654 108.856 11.4031 109.009 11.9821 109.056C12.5534 109.106 13.1435 109.032 13.7521 108.834Z" fill="white"/>
<path d="M5.97659 96.7832L11.5472 95.9009C12.037 95.8233 12.4552 95.6761 12.8015 95.4592C13.1478 95.2424 13.4249 94.9717 13.6327 94.6472C13.8405 94.3227 13.977 93.9568 14.0421 93.5496C14.1151 93.1412 14.1153 92.7078 14.0427 92.2495C13.9713 91.7992 13.8379 91.391 13.6422 91.0251C13.4545 90.658 13.2116 90.3522 12.9137 90.1078C12.6146 89.8555 12.2668 89.6797 11.8704 89.5805C11.474 89.4813 11.0309 89.4705 10.541 89.5481L4.97041 90.4304L5.23885 92.1252L10.7027 91.2598C11.1768 91.1847 11.5801 91.2505 11.9125 91.457C12.2357 91.6569 12.4362 92.0018 12.5137 92.4917C12.5913 92.9816 12.5079 93.3755 12.2635 93.6734C12.01 93.9646 11.6461 94.1478 11.172 94.2229L5.70815 95.0883L5.97659 96.7832Z" fill="white"/>
<path d="M9.088 82.9007L13 80.3807V78.3527L9.088 81.0887V82.9007ZM4.6 84.8087H13V83.0927H4.6V84.8087ZM6.064 83.7647V82.0967C6.064 81.7927 6.116 81.5327 6.22 81.3167C6.316 81.0927 6.46 80.9207 6.652 80.8007C6.836 80.6807 7.06 80.6207 7.324 80.6207C7.588 80.6207 7.816 80.6807 8.008 80.8007C8.192 80.9207 8.336 81.0927 8.44 81.3167C8.536 81.5327 8.584 81.7927 8.584 82.0967V83.7647H9.952V81.9887C9.952 81.3247 9.84 80.7607 9.616 80.2967C9.392 79.8327 9.08 79.4767 8.68 79.2287C8.272 78.9807 7.804 78.8567 7.276 78.8567C6.74 78.8567 6.272 78.9807 5.872 79.2287C5.472 79.4767 5.16 79.8327 4.936 80.2967C4.712 80.7607 4.6 81.3247 4.6 81.9887V83.7647H6.064Z" fill="white"/>
<path d="M7.56017 60.6307L15.549 63.2265L16.0793 61.5945L8.09044 58.9987L7.56017 60.6307ZM9.26372 60.0865L9.77916 58.5002C9.92007 58.0665 10.1302 57.7562 10.4096 57.5694C10.6814 57.3802 11.0113 57.3486 11.3994 57.4746C11.7798 57.5982 12.0281 57.8177 12.1444 58.1331C12.2606 58.4484 12.2483 58.823 12.1073 59.2566L11.5919 60.843L12.9728 61.2917L13.4883 59.7053C13.6935 59.0738 13.765 58.5041 13.703 57.996C13.6434 57.4804 13.4617 57.0428 13.158 56.6833C12.8466 56.3214 12.4322 56.0564 11.9148 55.8883C11.3898 55.7177 10.8988 55.6885 10.4417 55.8008C9.98468 55.913 9.58051 56.1603 9.22922 56.5424C8.88041 56.9169 8.60341 57.42 8.39822 58.0515L7.88278 59.6378L9.26372 60.0865Z" fill="white"/>
<path d="M12.3047 48.2969L19.7892 52.1105L22.0882 47.5984L20.7517 46.9174L19.2317 49.9005L13.0838 46.768L12.3047 48.2969Z" fill="white"/>
<path d="M23.6412 41.6882L26.251 38.0961L25.034 37.4641L22.6641 40.7261L23.6412 41.6882ZM21.8836 37.6968L24.9833 38.3914L25.3187 38.6648L27.8369 39.1594L28.9795 37.5867L19.2818 35.8065L23.9716 44.4795L25.1072 42.9165L23.8145 40.6126L23.4827 40.416L21.8836 37.6968Z" fill="white"/>
<path d="M26.5152 30.2141L28.1104 28.6188L32.9555 33.4639L34.1689 32.2505L29.3238 27.4055L30.9275 25.8017L29.8329 24.7071L25.4206 29.1195L26.5152 30.2141Z" fill="white"/>
<path d="M40.2295 27.0593L43.6565 24.5694L42.803 23.3947L39.376 25.8846L40.2295 27.0593ZM36.1456 21.4382L39.5725 18.9483L38.7191 17.7737L35.2921 20.2635L36.1456 21.4382ZM38.0288 24.0303L41.2616 21.6815L40.4223 20.5262L37.1895 22.875L38.0288 24.0303ZM34.3989 20.9124L39.3363 27.7082L40.6761 26.7348L35.7387 19.9391L34.3989 20.9124Z" fill="white"/>
<path d="M60.6608 8.78698L58.666 10.6085L59.1544 11.2574L61.4869 9.9317L60.6608 8.78698ZM61.4908 11.924L59.1442 10.6046L58.6763 11.2613L60.651 13.0675L61.4908 11.924ZM58.7565 13.683L59.2925 11.0611L58.5279 10.8048L57.4051 13.2516L58.7565 13.683ZM56.2371 11.6375L58.9034 11.339L58.9171 10.527L56.2327 10.2258L56.2371 11.6375ZM57.41 8.60671L58.5222 11.059L59.2983 10.8069L58.7567 8.16914L57.41 8.60671Z" fill="#E2CAA2"/>
</svg>
